<svg id="Calque_1" data-name="Calque 1" xmlns="http://www.w3.org/2000/svg" viewBox="0 0 176.58 178.51"><defs><style>.cls-1{fill:#757068;}.cls-1,.cls-2,.cls-5,.cls-6{stroke:#000;}.cls-1,.cls-2,.cls-5,.cls-6,.cls-8{stroke-miterlimit:10;stroke-width:4px;}.cls-2{fill:#82745b;}.cls-3{fill:#8e8e8e;}.cls-4{fill:#7f7f7f;}.cls-5{fill:#6da3a3;}.cls-6{fill:#afaeae;}.cls-7{fill:#7ea8a7;}.cls-8{fill:none;stroke:#1d1d1b;}</style></defs><title>spaceship</title><rect class="cls-1" x="87.73" y="83.68" width="46.91" height="72.28" rx="23.45" ry="23.45" transform="translate(36.45 -35.27) rotate(22.12)"/><polyline class="cls-2" points="18.09 98.83 30.2 69.03 36.56 84.12"/><polyline class="cls-2" points="160.8 156.83 172.91 127.03 157.22 133.65"/><polyline class="cls-3" points="88.82 129.3 162.62 174.61 140.61 3.73"/><polyline class="cls-4" points="140.61 3.73 4.53 109.41 88.82 129.3"/><path class="cls-5" d="M141.7,153.66a42.29,42.29,0,1,0-77.2-31.84l41.16,9.71Z" transform="translate(-16.84 -2.23)"/><rect class="cls-6" x="127.67" y="32.29" width="16.94" height="52.24" rx="8.35" ry="8.35" transform="translate(15.16 -49.18) rotate(22.12)"/><path class="cls-7" d="M130.32,145.34a28.86,28.86,0,1,0-52.69-21.73l28.1,6.63Z" transform="translate(-16.84 -2.23)"/><polygon class="cls-8" points="162.62 174.61 140.61 3.73 4.53 109.41 88.82 129.3 162.62 174.61"/></svg>